<svg width="25" height="24" viewBox="0 0 25 24" fill="none" xmlns="http://www.w3.org/2000/svg">
<path d="M21.552 5.88889L21.552 4.88889H21.552V5.88889ZM23.9879 8.57656L24.9829 8.67621L24.9829 8.6762L23.9879 8.57656ZM23.2534 15.9099L22.2584 15.8102V15.8102L23.2534 15.9099ZM20.8175 18.1111V19.1111H20.8176L20.8175 18.1111ZM9.12776 18.1111V17.1111H9.12737L9.12776 18.1111ZM6.72615 16.1458L7.7067 15.9495L7.70669 15.9494L6.72615 16.1458ZM3.68069 1.92522L4.6508 1.68255L4.65063 1.68188L3.68069 1.92522ZM2.49335 1L2.49338 0H2.49335V1ZM1 1V0C0.621098 0 0.274739 0.214148 0.105412 0.553109C-0.0639163 0.89207 -0.0271268 1.29762 0.200433 1.60058L1 1ZM8.34436 22C7.79208 22 7.34436 22.4477 7.34436 23C7.34436 23.5523 7.79208 24 8.34436 24V22ZM10.7925 24C11.3448 24 11.7925 23.5523 11.7925 23C11.7925 22.4477 11.3448 22 10.7925 22V24ZM18.1368 22C17.5846 22 17.1368 22.4477 17.1368 23C17.1368 23.5523 17.5846 24 18.1368 24V22ZM20.585 24C21.1372 24 21.585 23.5523 21.585 23C21.585 22.4477 21.1372 22 20.585 22V24ZM4.67218 6.88889H21.552V4.88889H4.67218V6.88889ZM21.5519 6.88889C21.7545 6.8889 21.9547 6.93128 22.1398 7.01327L22.95 5.18472C22.5097 4.98967 22.0335 4.88891 21.552 4.88889L21.5519 6.88889ZM22.1398 7.01327C22.3248 7.09525 22.4904 7.21499 22.6261 7.36468L24.108 6.02158C23.7847 5.66483 23.3902 5.37978 22.95 5.18472L22.1398 7.01327ZM22.6261 7.36468C22.7618 7.51436 22.8644 7.69067 22.9276 7.88221L24.827 7.25614C24.6763 6.79888 24.4314 6.37834 24.108 6.02158L22.6261 7.36468ZM22.9276 7.88221C22.9907 8.07375 23.0129 8.27633 22.9928 8.47691L24.9829 8.6762C25.0309 8.19715 24.9778 7.71339 24.827 7.25614L22.9276 7.88221ZM22.9928 8.4769L22.2584 15.8102L24.2484 16.0095L24.9829 8.67621L22.9928 8.4769ZM22.2584 15.8102C22.2227 16.1662 22.0559 16.4966 21.7897 16.7371L23.1306 18.221C23.7647 17.648 24.1633 16.8599 24.2484 16.0095L22.2584 15.8102ZM21.7897 16.7371C21.5235 16.9777 21.1771 17.1111 20.8175 17.1111L20.8176 19.1111C21.6722 19.1111 22.4966 18.794 23.1306 18.221L21.7897 16.7371ZM20.8175 17.1111H9.12776V19.1111H20.8175V17.1111ZM9.12737 17.1111C8.79206 17.1112 8.46727 16.9953 8.20828 16.7834L6.94166 18.3312C7.55844 18.8359 8.33114 19.1114 9.12816 19.1111L9.12737 17.1111ZM8.20828 16.7834C7.94932 16.5715 7.7722 16.2767 7.7067 15.9495L5.74561 16.3421C5.90204 17.1235 6.32484 17.8264 6.94166 18.3312L8.20828 16.7834ZM7.70669 15.9494L5.65271 5.69253L3.69165 6.08524L5.74562 16.3421L7.70669 15.9494ZM5.64229 5.64622L4.6508 1.68255L2.71058 2.16789L3.70207 6.13156L5.64229 5.64622ZM4.65063 1.68188C4.52999 1.20103 4.25197 0.774507 3.86106 0.469897L2.63175 2.04748C2.67108 2.07814 2.69877 2.12082 2.71075 2.16857L4.65063 1.68188ZM3.86106 0.469897C3.47019 0.165309 2.9888 1.29938e-05 2.49338 0L2.49333 2C2.54366 2 2.59238 2.01681 2.63175 2.04748L3.86106 0.469897ZM2.49335 0H1V2H2.49335V0ZM0.200433 1.60058L3.87261 6.48947L5.47175 5.28831L1.79957 0.399423L0.200433 1.60058ZM8.34436 24H10.7925V22H8.34436V24ZM18.1368 24H20.585V22H18.1368V24Z" fill="white"/>
</svg>
