<svg width="18" height="18" viewBox="0 0 18 18" fill="none" xmlns="http://www.w3.org/2000/svg">
<path d="M17.8347 3.10466L14.8959 0.166C14.8454 0.113505 14.7847 0.0717471 14.7177 0.0432242C14.6506 0.0147013 14.5785 0 14.5056 0C14.4327 0 14.3606 0.0147013 14.2935 0.0432242C14.2265 0.0717471 14.1659 0.113505 14.1153 0.166L5.29898 8.98198C5.24882 9.03281 5.20921 9.09306 5.18242 9.15925C5.15562 9.22544 5.14218 9.29628 5.14286 9.36768V12.3063C5.14286 12.4525 5.20091 12.5926 5.30425 12.696C5.40758 12.7993 5.54774 12.8573 5.69388 12.8573H8.63265C8.70495 12.8585 8.77668 12.8443 8.84314 12.8158C8.9096 12.7873 8.96931 12.7452 9.01837 12.692L17.8347 3.87606C17.8869 3.82631 17.9285 3.76647 17.9569 3.70017C17.9853 3.63387 18 3.56249 18 3.49036C18 3.41823 17.9853 3.34685 17.9569 3.28055C17.9285 3.21425 17.8869 3.15441 17.8347 3.10466ZM8.40306 11.7553H6.2449V9.59727L12.3061 3.53628L14.4643 5.69436L8.40306 11.7553ZM15.2449 4.91377L13.0867 2.7557L14.5102 1.33228L16.6684 3.49036L15.2449 4.91377ZM17.2653 8.63302V16.7143C17.2653 17.0553 17.1298 17.3823 16.8887 17.6234C16.6476 17.8645 16.3206 18 15.9796 18H1.28571C0.944722 18 0.617695 17.8645 0.376577 17.6234C0.135459 17.3823 0 17.0553 0 16.7143V2.02103C0 1.68005 0.135459 1.35304 0.376577 1.11193C0.617695 0.87082 0.944722 0.735366 1.28571 0.735366H9.36735C9.51349 0.735366 9.65364 0.793417 9.75698 0.89675C9.86031 1.00008 9.91837 1.14023 9.91837 1.28636C9.91837 1.4325 9.86031 1.57265 9.75698 1.67598C9.65364 1.77931 9.51349 1.83736 9.36735 1.83736H1.28571C1.237 1.83736 1.19028 1.85671 1.15584 1.89116C1.12139 1.9256 1.10204 1.97232 1.10204 2.02103V16.7143C1.10204 16.763 1.12139 16.8098 1.15584 16.8442C1.19028 16.8787 1.237 16.898 1.28571 16.898H15.9796C16.0283 16.898 16.075 16.8787 16.1095 16.8442C16.1439 16.8098 16.1633 16.763 16.1633 16.7143V8.63302C16.1633 8.48688 16.2213 8.34674 16.3247 8.2434C16.428 8.14007 16.5681 8.08202 16.7143 8.08202C16.8604 8.08202 17.0006 8.14007 17.1039 8.2434C17.2073 8.34674 17.2653 8.48688 17.2653 8.63302Z" fill="#343434"/>
</svg>
